<svg xmlns="http://www.w3.org/2000/svg" width="36" height="29.239"><path d="M32.3 7.287c.023.32.023.64.023.959 0 9.754-7.424 20.992-20.992 20.992A20.85 20.85 0 010 25.926a15.263 15.263 0 001.782.091 14.776 14.776 0 009.16-3.152 7.391 7.391 0 01-6.9-5.117 9.3 9.3 0 001.393.114 7.8 7.8 0 001.942-.251 7.379 7.379 0 01-5.916-7.241v-.091a7.431 7.431 0 003.339.94 7.389 7.389 0 01-2.287-9.872 20.972 20.972 0 0015.213 7.721 8.329 8.329 0 01-.183-1.69A7.385 7.385 0 0130.312 2.33 14.526 14.526 0 0034.995.548a7.358 7.358 0 01-3.244 4.066A14.791 14.791 0 0036 3.472a15.86 15.86 0 01-3.7 3.815z" fill="#fff"/></svg>